<?xml version="1.0" encoding="utf-8"?>
<svg version="1.1" xmlns:xlink="http://www.w3.org/1999/xlink" width="55px" height="47px" xmlns="http://www.w3.org/2000/svg">
  <g transform="matrix(1 0 0 1 -812 -400 )">
    <path d="M 812 400  L 867 400  L 867 447  L 812 447  L 812 400  " fill-rule="nonzero" fill="#cccccc" stroke="none" />
    <path d="M 815 403  L 864 403  L 864 444  L 815 444  L 815 403  " fill-rule="nonzero" fill="#ffffff" stroke="none" />
    <path d="M 844.125 414.1  C 842.1510000000001 414.1  840.6 412.54900000000004  840.6 410.57500000000005  C 840.6 408.601  842.1510000000001 407.05  844.125 407.05  C 846.0989999999999 407.05  847.65 408.601  847.65 410.57500000000005  C 847.65 412.54900000000004  846.0989999999999 414.1  844.125 414.1  " fill-rule="nonzero" fill="#cccccc" stroke="none" />
    <path d="M 816 443  L 816 421.55  L 827.75 411.8  L 844.2 423.00363636363636  L 853.6 417.65  L 863 423.00363636363636  L 863 443  L 816 443  " fill-rule="nonzero" fill="#169bd5" stroke="none" />
  </g>
</svg>