<?xml version="1.0" encoding="utf-8"?>
<svg version="1.1" xmlns:xlink="http://www.w3.org/1999/xlink" width="41px" height="44px" xmlns="http://www.w3.org/2000/svg">
  <g transform="matrix(1 0 0 1 -50 -559 )">
    <path d="M 70.5 559  C 81.98 559  91 568.68  91 581  C 91 593.32  81.98 603  70.5 603  C 59.019999999999996 603  50 593.32  50 581  C 50 568.68  59.019999999999996 559  70.5 559  Z " fill-rule="nonzero" fill="#ffffff" stroke="none" />
    <path d="M 70.5 559.5  C 81.7 559.5  90.5 568.96  90.5 581  C 90.5 593.04  81.7 602.5  70.5 602.5  C 59.3 602.5  50.5 593.04  50.5 581  C 50.5 568.96  59.3 559.5  70.5 559.5  Z " stroke-width="1" stroke="#797979" fill="none" />
  </g>
</svg>