<?xml version="1.0" encoding="utf-8"?>
<svg version="1.1" xmlns:xlink="http://www.w3.org/1999/xlink" width="15px" height="16px" xmlns="http://www.w3.org/2000/svg">
  <g transform="matrix(1 0 0 1 -162 -236 )">
    <path d="M 169.5 236  C 173.7 236  177 239.52  177 244  C 177 248.48  173.7 252  169.5 252  C 165.3 252  162 248.48  162 244  C 162 239.52  165.3 236  169.5 236  Z " fill-rule="nonzero" fill="#ffffff" stroke="none" />
    <path d="M 169.5 236.5  C 173.42 236.5  176.5 239.8  176.5 244  C 176.5 248.2  173.42 251.5  169.5 251.5  C 165.58 251.5  162.5 248.2  162.5 244  C 162.5 239.8  165.58 236.5  169.5 236.5  Z " stroke-width="1" stroke="#797979" fill="none" />
  </g>
</svg>