<?xml version="1.0" encoding="utf-8"?>
<svg version="1.1" xmlns:xlink="http://www.w3.org/1999/xlink" width="468px" height="277px" xmlns="http://www.w3.org/2000/svg">
  <g transform="matrix(1 0 0 1 -64 -782 )">
    <path d="M 64 782  L 532 782  L 532 1059  L 64 1059  L 64 782  " fill-rule="nonzero" fill="#cccccc" stroke="none" />
    <path d="M 83 801  L 513 801  L 513 1040  L 83 1040  L 83 801  " fill-rule="nonzero" fill="#ffffff" stroke="none" />
    <path d="M 328.135 865.0999999999999  C 316.501 865.0999999999999  307.36 855.959  307.36 844.3249999999999  C 307.36 832.6909999999999  316.501 823.55  328.135 823.55  C 339.769 823.55  348.91 832.6909999999999  348.91 844.3249999999999  C 348.91 855.959  339.769 865.0999999999999  328.135 865.0999999999999  " fill-rule="nonzero" fill="#cccccc" stroke="none" />
    <path d="M 90 1033  L 90 909.25  L 194 853  L 339.6 953.0961538461538  L 422.8 886.75  L 506 953.0961538461538  L 506 1033  L 90 1033  " fill-rule="nonzero" fill="#169bd5" stroke="none" />
  </g>
</svg>