<?xml version="1.0" encoding="utf-8"?>
<svg version="1.1" xmlns:xlink="http://www.w3.org/1999/xlink" width="582px" height="525px" xmlns="http://www.w3.org/2000/svg">
  <g transform="matrix(1 0 0 1 -490 -104 )">
    <path d="M 490 104  L 1072 104  L 1072 629  L 490 629  L 490 104  " fill-rule="nonzero" fill="#cccccc" stroke="none" />
    <path d="M 527 141  L 1035 141  L 1035 592  L 527 592  L 527 141  " fill-rule="nonzero" fill="#ffffff" stroke="none" />
    <path d="M 832.015 261.5  C 809.965 261.5  792.64 244.175  792.64 222.125  C 792.64 200.075  809.965 182.75  832.015 182.75  C 854.0649999999999 182.75  871.39 200.075  871.39 222.125  C 871.39 244.175  854.0649999999999 261.5  832.015 261.5  " fill-rule="nonzero" fill="#cccccc" stroke="none" />
    <path d="M 540 579  L 540 345.25  L 660.5 239  L 829.2 348.9742268041237  L 925.6 302.75  L 1022 348.9742268041237  L 1022 579  L 540 579  " fill-rule="nonzero" fill="#169bd5" stroke="none" />
  </g>
</svg>