<?xml version="1.0" encoding="utf-8"?>
<svg version="1.1" xmlns:xlink="http://www.w3.org/1999/xlink" width="63px" height="65px" xmlns="http://www.w3.org/2000/svg">
  <g transform="matrix(1 0 0 1 -40 -3862 )">
    <path d="M 71.5 3862  C 89.14 3862  103 3876.3  103 3894.5  C 103 3912.7  89.14 3927  71.5 3927  C 53.86 3927  40 3912.7  40 3894.5  C 40 3876.3  53.86 3862  71.5 3862  Z " fill-rule="nonzero" fill="#ffffff" stroke="none" />
    <path d="M 71.5 3862.5  C 88.86 3862.5  102.5 3876.58  102.5 3894.5  C 102.5 3912.42  88.86 3926.5  71.5 3926.5  C 54.14 3926.5  40.5 3912.42  40.5 3894.5  C 40.5 3876.58  54.14 3862.5  71.5 3862.5  Z " stroke-width="1" stroke="#797979" fill="none" />
  </g>
</svg>