<?xml version="1.0" encoding="utf-8"?>
<svg version="1.1" xmlns:xlink="http://www.w3.org/1999/xlink" width="21px" height="15px" xmlns="http://www.w3.org/2000/svg">
  <g transform="matrix(1 0 0 1 -133 -76 )">
    <path d="M 15.591796875000002 11.751302083333332  C 17.158203125 10.696614583333332  18.4609375 9.279513888888886  19.5 7.5  C 18.3125 5.451388888888889  16.82421875 3.919270833333333  15.03515625 2.9036458333333326  C 15.51171875 3.8064236111111094  15.75 4.782986111111111  15.75 5.833333333333332  C 15.75 7.439236111111109  15.236328125 8.812934027777777  14.208984375 9.954427083333334  C 13.181640625000002 11.095920138888886  11.9453125 11.666666666666666  10.5 11.666666666666666  C 9.054687500000002 11.666666666666666  7.818359375000001 11.095920138888886  6.791015625000001 9.954427083333334  C 5.763671875000001 8.812934027777777  5.25 7.439236111111109  5.25 5.833333333333332  C 5.25 4.782986111111111  5.488281250000001 3.8064236111111094  5.964843749999999 2.9036458333333326  C 4.175781250000001 3.919270833333333  2.6875000000000004 5.451388888888889  1.5 7.5  C 2.5390625000000004 9.279513888888886  3.841796875 10.696614583333332  5.408203125 11.751302083333332  C 6.974609375000001 12.805989583333332  8.671875 13.333333333333332  10.5 13.333333333333332  C 12.328125 13.333333333333332  14.025390625000004 12.805989583333332  15.591796875000002 11.751302083333332  Z M 10.8984375 2.942708333333334  C 11.007812500000002 2.821180555555556  11.0625 2.6736111111111107  11.0625 2.4999999999999996  C 11.0625 2.3263888888888884  11.007812500000002 2.178819444444443  10.8984375 2.057291666666667  C 10.789062500000002 1.9357638888888873  10.65625 1.8749999999999982  10.5 1.875  C 9.5234375 1.8749999999999982  8.685546875000002 2.2634548611111107  7.986328125 3.040364583333333  C 7.287109375000001 3.817274305555556  6.9375 4.748263888888889  6.9375 5.833333333333332  C 6.9375 6.006944444444444  6.992187500000002 6.154513888888889  7.1015625 6.276041666666667  C 7.210937500000001 6.397569444444443  7.343750000000001 6.458333333333334  7.5 6.458333333333334  C 7.656250000000001 6.458333333333334  7.789062500000001 6.397569444444443  7.898437500000001 6.276041666666667  C 8.0078125 6.154513888888889  8.0625 6.006944444444444  8.0625 5.833333333333332  C 8.0625 5.086805555555555  8.30078125 4.448784722222222  8.77734375 3.919270833333333  C 9.253906250000002 3.389756944444444  9.828125000000002 3.124999999999999  10.5 3.1250000000000004  C 10.65625 3.124999999999999  10.789062500000002 3.06423611111111  10.8984375 2.942708333333334  Z M 20.765625 6.601562499999999  C 20.921875 6.905381944444445  21 7.204861111111109  21 7.5  C 21 7.7951388888888875  20.921875 8.094618055555555  20.765625 8.398437499999998  C 19.671875000000004 10.394965277777777  18.201171875000004 11.99435763888889  16.353515625 13.196614583333334  C 14.505859375 14.398871527777777  12.554687500000002 15  10.5 15  C 8.4453125 15  6.494140625 14.39670138888889  4.646484375 13.190104166666666  C 2.798828125 11.983506944444443  1.3281250000000002 10.386284722222221  0.234375 8.398437499999998  C 0.078125 8.094618055555555  0 7.7951388888888875  0 7.5  C 0 7.204861111111109  0.078125 6.905381944444445  0.234375 6.601562499999999  C 1.3281250000000002 4.613715277777778  2.798828125 3.0164930555555545  4.646484375 1.809895833333333  C 6.494140625 0.6032986111111099  8.4453125 0  10.5 0  C 12.554687500000002 0  14.505859375 0.6032986111111099  16.353515625 1.809895833333333  C 18.201171875000004 3.0164930555555545  19.671875000000004 4.613715277777778  20.765625 6.601562499999999  Z " fill-rule="nonzero" fill="#000000" stroke="none" transform="matrix(1 0 0 1 133 76 )" />
  </g>
</svg>