<?xml version="1.0" encoding="utf-8"?>
<svg version="1.1" xmlns:xlink="http://www.w3.org/1999/xlink" width="31px" height="27px" xmlns="http://www.w3.org/2000/svg">
  <g transform="matrix(1 0 0 1 -208 -173 )">
    <path d="M 223.5 173  C 232.18 173  239 178.94  239 186.5  C 239 194.06  232.18 200  223.5 200  C 214.82 200  208 194.06  208 186.5  C 208 178.94  214.82 173  223.5 173  Z " fill-rule="nonzero" fill="#ffffff" stroke="none" />
    <path d="M 223.5 173.5  C 231.9 173.5  238.5 179.22  238.5 186.5  C 238.5 193.78  231.9 199.5  223.5 199.5  C 215.1 199.5  208.5 193.78  208.5 186.5  C 208.5 179.22  215.1 173.5  223.5 173.5  Z " stroke-width="1" stroke="#797979" fill="none" />
  </g>
</svg>