<?xml version="1.0" encoding="utf-8"?>
<svg version="1.1" xmlns:xlink="http://www.w3.org/1999/xlink" width="61px" height="62px" xmlns="http://www.w3.org/2000/svg">
  <g transform="matrix(1 0 0 1 -83 -235 )">
    <path d="M 113.5 235  C 130.57999999999998 235  144 248.64  144 266  C 144 283.36  130.57999999999998 297  113.5 297  C 96.42 297  83 283.36  83 266  C 83 248.64  96.42 235  113.5 235  Z " fill-rule="nonzero" fill="#ffffff" stroke="none" />
    <path d="M 113.5 235.5  C 130.3 235.5  143.5 248.92  143.5 266  C 143.5 283.08  130.3 296.5  113.5 296.5  C 96.7 296.5  83.5 283.08  83.5 266  C 83.5 248.92  96.7 235.5  113.5 235.5  Z " stroke-width="1" stroke="#797979" fill="none" />
  </g>
</svg>