<?xml version="1.0" encoding="utf-8"?>
<svg version="1.1" xmlns:xlink="http://www.w3.org/1999/xlink" width="58px" height="57px" xmlns="http://www.w3.org/2000/svg">
  <g transform="matrix(1 0 0 1 -46 -22 )">
    <path d="M 75 22  C 91.24000000000001 22  104 34.54  104 50.5  C 104 66.46000000000001  91.24000000000001 79  75 79  C 58.76 79  46 66.46000000000001  46 50.5  C 46 34.54  58.76 22  75 22  Z " fill-rule="nonzero" fill="#ffffff" stroke="none" />
    <path d="M 75 22.5  C 90.96000000000001 22.5  103.5 34.82  103.5 50.5  C 103.5 66.18  90.96000000000001 78.5  75 78.5  C 59.04 78.5  46.5 66.18  46.5 50.5  C 46.5 34.82  59.04 22.5  75 22.5  Z " stroke-width="1" stroke="#797979" fill="none" />
  </g>
</svg>