<?xml version="1.0" encoding="utf-8"?>
<svg version="1.1" xmlns:xlink="http://www.w3.org/1999/xlink" width="30px" height="21px" xmlns="http://www.w3.org/2000/svg">
  <g transform="matrix(1 0 0 1 -1008 -48 )">
    <path d="M 29.45806451612903 2.8989898989898997  C 29.819354838709682 3.2289562289562284  30.000000000000007 3.6296296296296293  30 4.101010101010101  C 30.000000000000007 4.57239057239057  29.819354838709682 4.973063973063971  29.45806451612903 5.303030303030302  L 15.445161290322583 18.1010101010101  L 12.812903225806453 20.505050505050505  C 12.451612903225808 20.835016835016837  12.012903225806454 21  11.496774193548388 21  C 10.980645161290322 21  10.541935483870969 20.835016835016837  10.180645161290322 20.505050505050505  L 7.548387096774193 18.1010101010101  L 0.5419354838709678 11.702020202020204  C 0.18064516129032276 11.37205387205387  0 10.971380471380469  0 10.5  C 0 10.028619528619528  0.18064516129032276 9.627946127946128  0.5419354838709678 9.2979797979798  L 3.174193548387097 6.8939393939393945  C 3.535483870967742 6.563973063973063  3.9741935483870976 6.398989898989897  4.490322580645161 6.398989898989899  C 5.006451612903227 6.398989898989897  5.445161290322581 6.563973063973063  5.806451612903226 6.8939393939393945  L 11.496774193548388 12.108585858585858  L 24.193548387096772 0.49494949494949503  C 24.554838709677423 0.16498316498316423  24.993548387096777 0  25.50967741935484 0  C 26.025806451612905 0  26.46451612903226 0.16498316498316423  26.825806451612902 0.49494949494949503  L 29.45806451612903 2.8989898989898997  Z " fill-rule="nonzero" fill="#000000" stroke="none" transform="matrix(1 0 0 1 1008 48 )" />
  </g>
</svg>