<?xml version="1.0" encoding="utf-8"?>
<svg version="1.1" xmlns:xlink="http://www.w3.org/1999/xlink" width="468px" height="277px" xmlns="http://www.w3.org/2000/svg">
  <g transform="matrix(1 0 0 1 -75 -679 )">
    <path d="M 75 679  L 543 679  L 543 956  L 75 956  L 75 679  " fill-rule="nonzero" fill="#cccccc" stroke="none" />
    <path d="M 94 698  L 524 698  L 524 937  L 94 937  L 94 698  " fill-rule="nonzero" fill="#ffffff" stroke="none" />
    <path d="M 339.135 762.0999999999999  C 327.501 762.0999999999999  318.36 752.959  318.36 741.3249999999999  C 318.36 729.6909999999999  327.501 720.55  339.135 720.55  C 350.769 720.55  359.91 729.6909999999999  359.91 741.3249999999999  C 359.91 752.959  350.769 762.0999999999999  339.135 762.0999999999999  " fill-rule="nonzero" fill="#cccccc" stroke="none" />
    <path d="M 101 930  L 101 806.25  L 205 750  L 350.6 850.0961538461538  L 433.8 783.75  L 517 850.0961538461538  L 517 930  L 101 930  " fill-rule="nonzero" fill="#169bd5" stroke="none" />
  </g>
</svg>