<?xml version="1.0" encoding="utf-8"?>
<svg version="1.1" xmlns:xlink="http://www.w3.org/1999/xlink" width="63px" height="65px" xmlns="http://www.w3.org/2000/svg">
  <g transform="matrix(1 0 0 1 -56 -3381 )">
    <path d="M 87.5 3381  C 105.14 3381  119 3395.3  119 3413.5  C 119 3431.7  105.14 3446  87.5 3446  C 69.86 3446  56 3431.7  56 3413.5  C 56 3395.3  69.86 3381  87.5 3381  Z " fill-rule="nonzero" fill="#ffffff" stroke="none" />
    <path d="M 87.5 3381.5  C 104.86 3381.5  118.5 3395.58  118.5 3413.5  C 118.5 3431.42  104.86 3445.5  87.5 3445.5  C 70.14 3445.5  56.5 3431.42  56.5 3413.5  C 56.5 3395.58  70.14 3381.5  87.5 3381.5  Z " stroke-width="1" stroke="#797979" fill="none" />
  </g>
</svg>